<?xml version="1.0" encoding="utf-8"?>
<!-- Generator: Adobe Illustrator 16.0.0, SVG Export Plug-In . SVG Version: 6.00 Build 0)  -->
<!DOCTYPE svg PUBLIC "-//W3C//DTD SVG 1.1//EN" "http://www.w3.org/Graphics/SVG/1.1/DTD/svg11.dtd">
<svg version="1.1" id="Layer_1" xmlns="http://www.w3.org/2000/svg" xmlns:xlink="http://www.w3.org/1999/xlink" x="0px" y="0px"
	 width="200px" height="125px" viewBox="0 0 200 125" style="enable-background:new 0 0 200 125;" xml:space="preserve">
<path style="fill-rule:evenodd;clip-rule:evenodd;fill:#FFFFFF;" d="M0,11.25v102.5C0,122.05,2.95,125,11.25,125h177.5
	c8.3,0,11.25-2.95,11.25-11.25V11.25C200,2.95,197.05,0,188.75,0H11.25C2.95,0,0,2.95,0,11.25z M84.6,60c0.91-3.17,1.4-6.53,1.4-10
	s-0.49-6.83-1.4-10h30.8c-0.91,3.17-1.4,6.53-1.4,10s0.49,6.83,1.4,10H84.6z M130,50c0-11.05,8.95-20,20-20s20,8.95,20,20
	s-8.95,20-20,20S130,61.05,130,50z M30,50c0-11.05,8.95-20,20-20s20,8.95,20,20s-8.95,20-20,20S30,61.05,30,50z M29,114.5
	c0-2.49,2.01-4.5,4.5-4.5s4.5,2.01,4.5,4.5s-2.01,4.5-4.5,4.5S29,116.99,29,114.5z M58,113c0-3.311,2.69-6,6-6s6,2.689,6,6
	s-2.69,6-6,6S58,116.311,58,113z M130,113c0-3.311,2.689-6,6-6s6,2.689,6,6s-2.689,6-6,6S130,116.311,130,113z M162,114.5
	c0-2.49,2.01-4.5,4.5-4.5s4.5,2.01,4.5,4.5s-2.01,4.5-4.5,4.5S162,116.99,162,114.5z"/>
</svg>
